<?xml version="1.0" encoding="utf-8"?>
<!-- Generator: Adobe Illustrator 16.0.4, SVG Export Plug-In . SVG Version: 6.00 Build 0)  -->
<!DOCTYPE svg PUBLIC "-//W3C//DTD SVG 1.1//EN" "http://www.w3.org/Graphics/SVG/1.1/DTD/svg11.dtd">
<svg version="1.1" id="Layer_1" xmlns="http://www.w3.org/2000/svg" xmlns:xlink="http://www.w3.org/1999/xlink" x="0px" y="0px"
	 width="670.466px" height="166.491px" viewBox="0 0 670.466 166.491" enable-background="new 0 0 670.466 166.491"
	 xml:space="preserve">
<g>
	<defs>
		<rect id="SVGID_1_" x="-315.107" y="-275.595" width="1280" height="730"/>
	</defs>
	<clipPath id="SVGID_2_">
		<use xlink:href="#SVGID_1_"  overflow="visible"/>
	</clipPath>
	<g clip-path="url(#SVGID_2_)">
		<defs>
			<path id="SVGID_3_" d="M170.872,40.563h3.319c2.961,0,5.227,0.773,6.791,2.317c1.565,1.543,2.347,3.682,2.347,6.415
				c0,2.734-0.605,4.789-1.815,6.166c-0.585,0.626-1.211,1.168-1.878,1.627c-0.668,0.459-1.419,0.793-2.253,1.003
				c-0.835,0.209-1.587,0.354-2.254,0.437c-0.668,0.084-1.18,0.125-1.533,0.125h-0.594v0.565h0.062
				c4.841,0,8.471,1.001,10.892,3.003c0.918,0.794,1.679,1.868,2.285,3.224c0.604,1.356,0.907,2.933,0.907,4.726
				c0,3.171-0.876,5.625-2.629,7.355c-1.753,1.733-4.216,2.598-7.387,2.598h-0.124h-6.136V40.563z M161.984,38.56l0.063,0.626h0.751
				c1.084,0,2.024,0.376,2.816,1.126c0.792,0.751,1.19,1.67,1.19,2.755v34.804c-0.042,1.085-0.449,2.003-1.221,2.754
				c-0.773,0.751-1.701,1.127-2.785,1.127h-0.751l-0.063,0.625h15.274c4.59,0,8.169-1.063,10.736-3.193
				c2.566-2.127,3.849-4.871,3.849-8.23c0-3.359-0.961-6.145-2.88-8.358c-1.92-2.21-4.528-3.567-7.824-4.068
				c1.919-0.541,3.546-1.637,4.883-3.286c1.335-1.647,2.003-3.726,2.003-6.228c0-3.171-1.189-5.707-3.568-7.606
				c-2.38-1.899-5.719-2.848-10.016-2.848H161.984z"/>
		</defs>
		<clipPath id="SVGID_4_">
			<use xlink:href="#SVGID_3_"  overflow="visible"/>
		</clipPath>
		
			<linearGradient id="SVGID_5_" gradientUnits="userSpaceOnUse" x1="-315.1069" y1="454.4053" x2="-314.1069" y2="454.4053" gradientTransform="matrix(-1.900000e-06 43.8179 43.8179 1.900000e-06 -19734.1484 13845.876)">
			<stop  offset="0" style="stop-color:#3F7ABB"/>
			<stop  offset="1" style="stop-color:#105186"/>
		</linearGradient>
		<rect x="161.984" y="38.56" clip-path="url(#SVGID_4_)" fill="url(#SVGID_5_)" width="29.859" height="43.817"/>
	</g>
	<g clip-path="url(#SVGID_2_)">
		<defs>
			<path id="SVGID_6_" d="M220.607,38.184c-1.524,0.25-2.933,0.376-4.225,0.376h-18.341l0.062,0.626h0.751
				c1.043,0,1.941,0.344,2.691,1.033c0.753,0.688,1.19,1.532,1.315,2.535v35.053c-0.042,1.086-0.448,2.015-1.22,2.787
				c-0.773,0.772-1.701,1.158-2.786,1.158h-0.813v0.625h25.977l3.631-10.14h-0.626c-1.086,2.713-2.441,4.758-4.07,6.134
				c-1.627,1.378-3.985,2.066-7.073,2.066h-8.951V61.721h10.642c0.834,0.041,1.533,0.355,2.097,0.938
				c0.563,0.586,0.845,1.294,0.845,2.129v0.939h0.626v-9.891h-0.626v0.877c0,0.876-0.293,1.607-0.877,2.19
				c-0.585,0.586-1.294,0.899-2.128,0.939h-10.579V40.5H219.7c0.959,0.042,1.783,0.418,2.471,1.126
				c0.689,0.711,1.034,1.566,1.034,2.567v1.127h0.625v-7.887C223.205,37.683,222.129,37.934,220.607,38.184"/>
		</defs>
		<clipPath id="SVGID_7_">
			<use xlink:href="#SVGID_6_"  overflow="visible"/>
		</clipPath>
		
			<linearGradient id="SVGID_8_" gradientUnits="userSpaceOnUse" x1="-315.1069" y1="454.4053" x2="-314.1069" y2="454.4053" gradientTransform="matrix(-2.000000e-06 44.9448 44.9448 2.000000e-06 -20210.3359 14199.8613)">
			<stop  offset="0" style="stop-color:#3F7ABB"/>
			<stop  offset="1" style="stop-color:#105186"/>
		</linearGradient>
		<rect x="198.041" y="37.433" clip-path="url(#SVGID_7_)" fill="url(#SVGID_8_)" width="29.608" height="44.944"/>
	</g>
	<g clip-path="url(#SVGID_2_)">
		<defs>
			<path id="SVGID_9_" d="M238.071,40.844c-1.983,2.108-2.974,4.643-2.974,7.606s1.127,5.488,3.381,7.575l12.018,11.142
				c1.628,1.502,2.442,3.453,2.442,5.852c0,2.4-0.846,4.393-2.535,5.978c-1.691,1.587-3.851,2.379-6.479,2.379
				c-2.547,0-4.591-0.845-6.135-2.536c-1.544-1.689-2.316-3.806-2.316-6.353c0-0.459,0.02-0.917,0.062-1.377h-0.563
				c-0.625,1.878-0.939,3.653-0.939,5.32c0,1.671,0.063,2.797,0.188,3.381c1.127,1.17,2.723,2.035,4.789,2.598
				c2.066,0.563,4.016,0.845,5.853,0.845c3.547,0,6.385-1.074,8.513-3.224c2.129-2.148,3.192-4.892,3.192-8.231
				c0-3.338-1.044-5.967-3.13-7.888l-12.331-11.393c-1.67-1.543-2.504-3.379-2.504-5.508c0-2.128,0.72-3.902,2.159-5.321
				c1.441-1.418,3.225-2.127,5.353-2.127c2.128,0,3.87,0.584,5.227,1.752c1.356,1.168,2.034,2.733,2.034,4.694h0.563v-7.699h-2.44
				c-2.004-0.417-3.799-0.626-5.384-0.626C242.735,37.683,240.053,38.737,238.071,40.844"/>
		</defs>
		<clipPath id="SVGID_10_">
			<use xlink:href="#SVGID_9_"  overflow="visible"/>
		</clipPath>
		
			<linearGradient id="SVGID_11_" gradientUnits="userSpaceOnUse" x1="-315.1064" y1="454.4053" x2="-314.1064" y2="454.4053" gradientTransform="matrix(-2.000000e-06 45.5703 45.5703 2.000000e-06 -20462.0918 14397.207)">
			<stop  offset="0" style="stop-color:#3F7ABB"/>
			<stop  offset="1" style="stop-color:#105186"/>
		</linearGradient>
		<rect x="234.033" y="37.683" clip-path="url(#SVGID_10_)" fill="url(#SVGID_11_)" width="22.535" height="45.571"/>
	</g>
	<g clip-path="url(#SVGID_2_)">
		<defs>
			<path id="SVGID_12_" d="M295.16,38.027c-1.358,0.313-3.058,0.47-5.102,0.47h-21.159c-1.293,0-2.712-0.125-4.256-0.375
				c-1.544-0.251-2.629-0.502-3.255-0.752v7.888l0.626-0.064v-1.063c0-1.002,0.345-1.868,1.034-2.598
				c0.688-0.729,1.532-1.116,2.534-1.159h11.894v37.559c-0.042,1.044-0.45,1.941-1.221,2.692c-0.773,0.751-1.701,1.127-2.785,1.127
				h-0.814v0.625h13.709v-0.625h-0.815c-1.085,0-2.014-0.376-2.785-1.127c-0.772-0.751-1.179-1.669-1.221-2.754V40.374h11.894
				c0.959,0.043,1.794,0.43,2.504,1.159c0.709,0.73,1.063,1.596,1.063,2.598v1.063l0.627,0.064V37.37
				C297.339,37.495,296.515,37.715,295.16,38.027"/>
		</defs>
		<clipPath id="SVGID_13_">
			<use xlink:href="#SVGID_12_"  overflow="visible"/>
		</clipPath>
		
			<linearGradient id="SVGID_14_" gradientUnits="userSpaceOnUse" x1="-315.106" y1="454.4053" x2="-314.106" y2="454.4053" gradientTransform="matrix(-2.000000e-06 45.0073 45.0073 2.000000e-06 -20172.0488 14219.4932)">
			<stop  offset="0" style="stop-color:#3F7ABB"/>
			<stop  offset="1" style="stop-color:#105186"/>
		</linearGradient>
		<rect x="261.388" y="37.37" clip-path="url(#SVGID_13_)" fill="url(#SVGID_14_)" width="36.244" height="45.007"/>
	</g>
	<g clip-path="url(#SVGID_2_)">
		<defs>
			<path id="SVGID_15_" d="M324.455,43.942c-4.153,4.174-6.229,9.672-6.229,16.495c0,6.823,2.076,12.322,6.229,16.495
				c4.151,4.173,9.524,6.28,16.119,6.322c7.929,0,13.79-3.109,17.588-9.328l0.753-9.827h-0.502
				c-0.711,6.219-2.754,10.704-6.134,13.458c-3.13,2.547-7.034,3.819-11.705,3.819c-5.302-0.125-9.566-2.097-12.802-5.915
				c-3.235-3.819-4.852-8.858-4.852-15.117c0-6.26,1.638-11.288,4.916-15.086c3.275-3.797,7.647-5.696,13.114-5.696
				c3.838,0,7.156,0.969,9.952,2.909c2.794,1.942,4.653,4.706,5.57,8.296h0.563l-1.252-8.827c-4.298-2.837-9.242-4.257-14.834-4.257
				C334.104,37.683,328.606,39.771,324.455,43.942"/>
		</defs>
		<clipPath id="SVGID_16_">
			<use xlink:href="#SVGID_15_"  overflow="visible"/>
		</clipPath>
		
			<linearGradient id="SVGID_17_" gradientUnits="userSpaceOnUse" x1="-315.1064" y1="454.4053" x2="-314.1064" y2="454.4053" gradientTransform="matrix(-2.000000e-06 45.5703 45.5703 2.000000e-06 -20368.8105 14397.207)">
			<stop  offset="0" style="stop-color:#3F7ABB"/>
			<stop  offset="1" style="stop-color:#105186"/>
		</linearGradient>
		<rect x="318.226" y="37.683" clip-path="url(#SVGID_16_)" fill="url(#SVGID_17_)" width="40.688" height="45.571"/>
	</g>
	<g clip-path="url(#SVGID_2_)">
		<defs>
			<path id="SVGID_18_" d="M376.097,75.617c-3.234-3.839-4.851-8.889-4.851-15.148c0-6.261,1.616-11.309,4.851-15.149
				c3.233-3.839,7.501-5.758,12.8-5.758c3.506,0,6.605,0.866,9.296,2.597c2.692,1.733,4.769,4.184,6.229,7.356
				c1.46,3.171,2.19,6.822,2.19,10.954c0,6.259-1.618,11.309-4.852,15.148c-3.235,3.841-7.511,5.759-12.832,5.759
				S379.331,79.458,376.097,75.617 M372.654,43.974c-4.152,4.194-6.229,9.693-6.229,16.495c0,6.802,2.076,12.3,6.229,16.495
				c4.151,4.193,9.566,6.29,16.243,6.29s12.104-2.097,16.276-6.29c4.173-4.195,6.259-9.693,6.259-16.495
				c0-6.802-2.086-12.301-6.259-16.495c-4.173-4.194-9.6-6.291-16.276-6.291S376.805,39.78,372.654,43.974"/>
		</defs>
		<clipPath id="SVGID_19_">
			<use xlink:href="#SVGID_18_"  overflow="visible"/>
		</clipPath>
		
			<linearGradient id="SVGID_20_" gradientUnits="userSpaceOnUse" x1="-315.1064" y1="454.4053" x2="-314.1064" y2="454.4053" gradientTransform="matrix(-2.000000e-06 45.5703 45.5703 2.000000e-06 -20318.4668 14397.207)">
			<stop  offset="0" style="stop-color:#3F7ABB"/>
			<stop  offset="1" style="stop-color:#105186"/>
		</linearGradient>
		<rect x="366.425" y="37.683" clip-path="url(#SVGID_19_)" fill="url(#SVGID_20_)" width="45.007" height="45.571"/>
	</g>
	<g clip-path="url(#SVGID_2_)">
		<defs>
			<path id="SVGID_21_" d="M420.51,37.62l0.125,1.002c0.292,2.004,0.437,4.279,0.437,6.824v32.487c0,1.086-0.374,1.994-1.126,2.724
				c-0.75,0.73-1.646,1.095-2.69,1.095h-1.189v0.625h12.896v-0.625h-1.191c-0.667,0-1.293-0.167-1.877-0.501
				c-1.253-0.71-1.899-1.793-1.942-3.255V46.823l34.116,36.431h0.563l-0.124-1.126c-0.293-2.171-0.439-4.465-0.439-6.886V42.941
				c0.042-1.042,0.439-1.929,1.19-2.66c0.75-0.729,1.646-1.095,2.69-1.095h1.126V38.56h-12.894v0.626h1.19
				c1.043,0,1.939,0.366,2.69,1.095c0.752,0.731,1.147,1.638,1.19,2.723v31.048L421.137,37.62H420.51z"/>
		</defs>
		<clipPath id="SVGID_22_">
			<use xlink:href="#SVGID_21_"  overflow="visible"/>
		</clipPath>
		
			<linearGradient id="SVGID_23_" gradientUnits="userSpaceOnUse" x1="-315.1069" y1="454.4053" x2="-314.1069" y2="454.4053" gradientTransform="matrix(-2.000000e-06 45.6333 45.6333 2.000000e-06 -20296.4316 14416.9922)">
			<stop  offset="0" style="stop-color:#3F7ABB"/>
			<stop  offset="1" style="stop-color:#105186"/>
		</linearGradient>
		<rect x="416.066" y="37.62" clip-path="url(#SVGID_22_)" fill="url(#SVGID_23_)" width="47.009" height="45.634"/>
	</g>
	<g clip-path="url(#SVGID_2_)">
		<defs>
			<path id="SVGID_24_" d="M491.59,38.184c-1.525,0.25-2.933,0.376-4.227,0.376h-18.341l0.063,0.626h0.75
				c1.043,0,1.973,0.344,2.785,1.033c0.815,0.688,1.222,1.532,1.222,2.535v35.053c-0.042,1.086-0.449,2.015-1.222,2.787
				s-1.699,1.158-2.785,1.158h-0.813v0.625h13.709v-0.625h-0.813c-1.088,0-2.025-0.386-2.816-1.158
				c-0.794-0.772-1.19-1.701-1.19-2.787V61.721h10.642c0.835,0.041,1.534,0.355,2.097,0.938c0.563,0.586,0.845,1.294,0.845,2.129
				v0.939h0.627v-9.891h-0.627v0.94c0,0.834-0.292,1.544-0.876,2.127c-0.584,0.586-1.293,0.899-2.129,0.939h-10.578V40.5h13.208
				c0.877,0,1.606,0.304,2.19,0.908c0.584,0.605,0.877,1.325,0.877,2.159v0.939h0.625v-5.257v-1.816
				C494.187,37.683,493.112,37.934,491.59,38.184"/>
		</defs>
		<clipPath id="SVGID_25_">
			<use xlink:href="#SVGID_24_"  overflow="visible"/>
		</clipPath>
		
			<linearGradient id="SVGID_26_" gradientUnits="userSpaceOnUse" x1="-315.1069" y1="454.4053" x2="-314.1069" y2="454.4053" gradientTransform="matrix(-2.000000e-06 44.9448 44.9448 2.000000e-06 -19941.2422 14199.8613)">
			<stop  offset="0" style="stop-color:#3F7ABB"/>
			<stop  offset="1" style="stop-color:#105186"/>
		</linearGradient>
		<rect x="469.023" y="37.433" clip-path="url(#SVGID_25_)" fill="url(#SVGID_26_)" width="25.789" height="44.944"/>
	</g>
	<g clip-path="url(#SVGID_2_)">
		<defs>
			<path id="SVGID_27_" d="M502.886,38.56v0.626h0.813c1.085,0,2.015,0.386,2.787,1.158c0.771,0.772,1.178,1.701,1.221,2.785v34.678
				c-0.043,1.086-0.45,2.015-1.221,2.787c-0.772,0.772-1.702,1.158-2.787,1.158h-0.813v0.625h25.978l3.63-10.14h-0.625
				c-1.086,2.713-2.44,4.758-4.067,6.134c-1.629,1.378-3.986,2.066-7.075,2.066h-8.95V43.129c0-0.708,0.188-1.378,0.563-2.003
				c0.792-1.293,1.939-1.94,3.442-1.94h0.813V38.56H502.886z"/>
		</defs>
		<clipPath id="SVGID_28_">
			<use xlink:href="#SVGID_27_"  overflow="visible"/>
		</clipPath>
		
			<linearGradient id="SVGID_29_" gradientUnits="userSpaceOnUse" x1="-315.1069" y1="454.4053" x2="-314.1069" y2="454.4053" gradientTransform="matrix(-1.900000e-06 43.8179 43.8179 1.900000e-06 -19393.3984 13845.876)">
			<stop  offset="0" style="stop-color:#3F7ABB"/>
			<stop  offset="1" style="stop-color:#105186"/>
		</linearGradient>
		<rect x="502.886" y="38.56" clip-path="url(#SVGID_28_)" fill="url(#SVGID_29_)" width="29.607" height="43.817"/>
	</g>
	<g clip-path="url(#SVGID_2_)">
		<defs>
			<path id="SVGID_30_" d="M537.127,38.56v0.626h0.814c1.083,0,2.011,0.376,2.784,1.126c0.773,0.751,1.179,1.67,1.221,2.755v34.74
				c-0.042,1.086-0.447,2.015-1.221,2.787s-1.701,1.158-2.784,1.158h-0.814v0.625h13.709v-0.625h-0.814
				c-1.085,0-2.025-0.386-2.816-1.158c-0.794-0.772-1.19-1.701-1.19-2.787v-34.74c0.042-1.085,0.449-2.004,1.222-2.755
				c0.771-0.75,1.7-1.126,2.785-1.126h0.814V38.56H537.127z"/>
		</defs>
		<clipPath id="SVGID_31_">
			<use xlink:href="#SVGID_30_"  overflow="visible"/>
		</clipPath>
		
			<linearGradient id="SVGID_32_" gradientUnits="userSpaceOnUse" x1="-315.1069" y1="454.4053" x2="-314.1069" y2="454.4053" gradientTransform="matrix(-1.900000e-06 43.8179 43.8179 1.900000e-06 -19367.0859 13845.876)">
			<stop  offset="0" style="stop-color:#3F7ABB"/>
			<stop  offset="1" style="stop-color:#105186"/>
		</linearGradient>
		<rect x="537.127" y="38.56" clip-path="url(#SVGID_31_)" fill="url(#SVGID_32_)" width="13.709" height="43.817"/>
	</g>
	<g clip-path="url(#SVGID_2_)">
		<defs>
			<path id="SVGID_33_" d="M563.261,43.942c-4.151,4.174-6.228,9.672-6.228,16.495c0,6.823,2.076,12.322,6.228,16.495
				c4.153,4.173,9.525,6.28,16.12,6.322c7.928,0,13.791-3.109,17.59-9.328l0.75-9.827h-0.5c-0.711,6.219-2.754,10.704-6.136,13.458
				c-3.128,2.547-7.031,3.819-11.704,3.819c-5.301-0.125-9.568-2.097-12.801-5.915c-3.235-3.819-4.853-8.858-4.853-15.117
				c0-6.26,1.638-11.288,4.914-15.086c3.275-3.797,7.646-5.696,13.115-5.696c3.839,0,7.155,0.969,9.951,2.909
				c2.796,1.942,4.654,4.706,5.572,8.296h0.563l-1.252-8.827c-4.3-2.837-9.244-4.257-14.835-4.257
				C572.911,37.683,567.415,39.771,563.261,43.942"/>
		</defs>
		<clipPath id="SVGID_34_">
			<use xlink:href="#SVGID_33_"  overflow="visible"/>
		</clipPath>
		
			<linearGradient id="SVGID_35_" gradientUnits="userSpaceOnUse" x1="-315.1064" y1="454.4053" x2="-314.1064" y2="454.4053" gradientTransform="matrix(-2.000000e-06 45.5703 45.5703 2.000000e-06 -20130.0293 14397.207)">
			<stop  offset="0" style="stop-color:#3F7ABB"/>
			<stop  offset="1" style="stop-color:#105186"/>
		</linearGradient>
		<rect x="557.034" y="37.683" clip-path="url(#SVGID_34_)" fill="url(#SVGID_35_)" width="40.688" height="45.571"/>
	</g>
	<g clip-path="url(#SVGID_2_)">
		<defs>
			<path id="SVGID_36_" d="M635.875,38.027c-1.356,0.313-3.058,0.47-5.101,0.47h-21.158c-1.295,0-2.714-0.125-4.258-0.375
				c-1.543-0.251-2.629-0.502-3.255-0.752v7.888l0.626-0.064v-1.063c0-1.002,0.345-1.868,1.033-2.598
				c0.688-0.729,1.534-1.116,2.536-1.159h11.893v37.559c-0.042,1.044-0.448,1.941-1.221,2.692c-0.772,0.751-1.702,1.127-2.786,1.127
				h-0.812v0.625h13.707v-0.625h-0.812c-1.086,0-2.013-0.376-2.786-1.127c-0.771-0.751-1.178-1.669-1.221-2.754V40.374h11.895
				c0.959,0.043,1.792,0.43,2.502,1.159c0.71,0.73,1.065,1.596,1.065,2.598v1.063l0.626,0.064V37.37
				C638.054,37.495,637.23,37.715,635.875,38.027"/>
		</defs>
		<clipPath id="SVGID_37_">
			<use xlink:href="#SVGID_36_"  overflow="visible"/>
		</clipPath>
		
			<linearGradient id="SVGID_38_" gradientUnits="userSpaceOnUse" x1="-315.106" y1="454.4053" x2="-314.106" y2="454.4053" gradientTransform="matrix(-2.000000e-06 45.0073 45.0073 2.000000e-06 -19831.3301 14219.4932)">
			<stop  offset="0" style="stop-color:#3F7ABB"/>
			<stop  offset="1" style="stop-color:#105186"/>
		</linearGradient>
		<rect x="602.103" y="37.37" clip-path="url(#SVGID_37_)" fill="url(#SVGID_38_)" width="36.244" height="45.007"/>
	</g>
	<g clip-path="url(#SVGID_2_)">
		<defs>
			<path id="SVGID_39_" d="M168.692,93.222c-1.981,2.106-2.973,4.643-2.973,7.605s1.127,5.489,3.381,7.574l12.019,11.143
				c1.626,1.502,2.441,3.453,2.441,5.854c0,2.399-0.845,4.392-2.537,5.977c-1.689,1.587-3.849,2.379-6.478,2.379
				c-2.546,0-4.591-0.845-6.134-2.535c-1.545-1.689-2.316-3.808-2.316-6.353c0-0.46,0.021-0.918,0.062-1.378h-0.563
				c-0.626,1.878-0.938,3.653-0.938,5.32c0,1.67,0.061,2.797,0.187,3.381c1.126,1.168,2.723,2.035,4.789,2.598
				c2.066,0.564,4.015,0.844,5.853,0.844c3.546,0,6.384-1.072,8.513-3.223c2.128-2.149,3.193-4.893,3.193-8.23
				c0-3.339-1.044-5.97-3.131-7.889l-12.331-11.393c-1.67-1.543-2.504-3.38-2.504-5.508c0-2.129,0.719-3.902,2.159-5.321
				c1.44-1.418,3.224-2.128,5.353-2.128c2.127,0,3.87,0.585,5.226,1.753c1.355,1.168,2.035,2.733,2.035,4.695h0.563v-7.7h-2.44
				c-2.005-0.416-3.799-0.625-5.384-0.625C173.356,90.062,170.674,91.114,168.692,93.222"/>
		</defs>
		<clipPath id="SVGID_40_">
			<use xlink:href="#SVGID_39_"  overflow="visible"/>
		</clipPath>
		
			<linearGradient id="SVGID_41_" gradientUnits="userSpaceOnUse" x1="-315.1064" y1="454.4053" x2="-314.1069" y2="454.4053" gradientTransform="matrix(-2.000000e-06 45.5703 45.5703 2.000000e-06 -20531.4668 14449.582)">
			<stop  offset="0" style="stop-color:#43C3D3"/>
			<stop  offset="1" style="stop-color:#00AEB8"/>
		</linearGradient>
		<rect x="164.656" y="90.062" clip-path="url(#SVGID_40_)" fill="url(#SVGID_41_)" width="22.535" height="45.568"/>
	</g>
	<g clip-path="url(#SVGID_2_)">
		<defs>
			<path id="SVGID_42_" d="M204.811,127.994c-3.235-3.839-4.852-8.888-4.852-15.148c0-6.26,1.617-11.309,4.852-15.148
				c3.233-3.839,7.501-5.759,12.801-5.759c3.505,0,6.604,0.867,9.295,2.597c2.692,1.733,4.767,4.187,6.229,7.355
				c1.46,3.172,2.191,6.822,2.191,10.955c0,6.261-1.618,11.31-4.851,15.148c-3.236,3.841-7.513,5.759-12.833,5.759
				S208.044,131.835,204.811,127.994 M201.368,96.353c-4.154,4.193-6.229,9.691-6.229,16.493c0,6.803,2.075,12.301,6.229,16.493
				c4.152,4.195,9.566,6.291,16.244,6.291c6.676,0,12.101-2.096,16.275-6.291c4.173-4.192,6.26-9.69,6.26-16.493
				c0-6.802-2.087-12.3-6.26-16.493c-4.174-4.195-9.599-6.291-16.275-6.291C210.934,90.062,205.52,92.157,201.368,96.353"/>
		</defs>
		<clipPath id="SVGID_43_">
			<use xlink:href="#SVGID_42_"  overflow="visible"/>
		</clipPath>
		
			<linearGradient id="SVGID_44_" gradientUnits="userSpaceOnUse" x1="-315.1064" y1="454.4053" x2="-314.1069" y2="454.4053" gradientTransform="matrix(-2.000000e-06 45.5703 45.5703 2.000000e-06 -20489.748 14449.582)">
			<stop  offset="0" style="stop-color:#43C3D3"/>
			<stop  offset="1" style="stop-color:#00AEB8"/>
		</linearGradient>
		<rect x="195.139" y="90.062" clip-path="url(#SVGID_43_)" fill="url(#SVGID_44_)" width="45.008" height="45.568"/>
	</g>
	<g clip-path="url(#SVGID_2_)">
		<defs>
			<path id="SVGID_45_" d="M245.718,90.938v0.626h0.815c1.083,0,2.012,0.386,2.785,1.158c0.771,0.771,1.178,1.699,1.221,2.784v34.68
				c-0.043,1.085-0.45,2.014-1.221,2.785c-0.773,0.772-1.702,1.157-2.785,1.157h-0.815v0.627h25.979l3.63-10.141h-0.626
				c-1.086,2.713-2.441,4.757-4.069,6.134c-1.626,1.378-3.985,2.066-7.073,2.066h-8.952V95.506c0-0.709,0.188-1.377,0.565-2.004
				c0.792-1.292,1.94-1.938,3.441-1.938h0.814v-0.626H245.718z"/>
		</defs>
		<clipPath id="SVGID_46_">
			<use xlink:href="#SVGID_45_"  overflow="visible"/>
		</clipPath>
		
			<linearGradient id="SVGID_47_" gradientUnits="userSpaceOnUse" x1="-315.1069" y1="454.4053" x2="-314.1069" y2="454.4053" gradientTransform="matrix(-1.900000e-06 43.8174 43.8174 1.900000e-06 -19650.332 13898.0967)">
			<stop  offset="0" style="stop-color:#43C3D3"/>
			<stop  offset="1" style="stop-color:#00AEB8"/>
		</linearGradient>
		<rect x="245.718" y="90.938" clip-path="url(#SVGID_46_)" fill="url(#SVGID_47_)" width="29.609" height="43.817"/>
	</g>
	<g clip-path="url(#SVGID_2_)">
		<defs>
			<path id="SVGID_48_" d="M310.632,90.938v0.626h1.002c0.916,0,1.689,0.282,2.316,0.844c0.625,0.563,0.958,1.284,1.001,2.16v24.726
				c0,4.3-1.274,7.772-3.819,10.423c-2.545,2.65-5.863,3.975-9.952,3.975c-4.091,0-7.355-1.398-9.797-4.194
				c-2.442-2.794-3.662-6.468-3.662-11.018V94.567c0.042-0.876,0.376-1.597,1.002-2.16c0.626-0.562,1.397-0.844,2.316-0.844h1.001
				v-0.626h-12.707v0.626h1.002c0.625,0,1.189,0.124,1.69,0.375c1.084,0.585,1.628,1.502,1.628,2.754v24.665
				c0,4.881,1.596,8.813,4.788,11.798c3.193,2.984,7.355,4.475,12.488,4.475c5.133,0,9.243-1.502,12.332-4.506
				c3.088-3.005,4.632-6.947,4.632-11.831V94.505c0.041-0.835,0.386-1.534,1.033-2.098c0.647-0.562,1.407-0.844,2.284-0.844h1.003
				v-0.626H310.632z"/>
		</defs>
		<clipPath id="SVGID_49_">
			<use xlink:href="#SVGID_48_"  overflow="visible"/>
		</clipPath>
		
			<linearGradient id="SVGID_50_" gradientUnits="userSpaceOnUse" x1="-315.1064" y1="454.4053" x2="-314.1064" y2="454.4053" gradientTransform="matrix(-2.000000e-06 44.6934 44.6934 2.000000e-06 -20008.1309 14174.123)">
			<stop  offset="0" style="stop-color:#43C3D3"/>
			<stop  offset="1" style="stop-color:#00AEB8"/>
		</linearGradient>
		<rect x="279.333" y="90.938" clip-path="url(#SVGID_49_)" fill="url(#SVGID_50_)" width="42.88" height="44.692"/>
	</g>
	<g clip-path="url(#SVGID_2_)">
		<defs>
			<path id="SVGID_51_" d="M360.365,90.405c-1.356,0.312-3.058,0.468-5.101,0.468h-21.16c-1.293,0-2.712-0.124-4.256-0.375
				c-1.543-0.25-2.629-0.501-3.255-0.751v7.886l0.626-0.062v-1.064c0-1.001,0.344-1.865,1.034-2.597
				c0.687-0.729,1.532-1.116,2.534-1.158h11.894v37.56c-0.042,1.043-0.448,1.938-1.221,2.689c-0.772,0.752-1.702,1.127-2.785,1.127
				h-0.815v0.627h13.709v-0.627h-0.813c-1.085,0-2.013-0.375-2.785-1.127c-0.772-0.751-1.178-1.668-1.221-2.754V92.752h11.894
				c0.959,0.042,1.793,0.429,2.504,1.158c0.709,0.731,1.064,1.596,1.064,2.597v1.064l0.626,0.062v-7.886
				C362.544,89.872,361.719,90.09,360.365,90.405"/>
		</defs>
		<clipPath id="SVGID_52_">
			<use xlink:href="#SVGID_51_"  overflow="visible"/>
		</clipPath>
		
			<linearGradient id="SVGID_53_" gradientUnits="userSpaceOnUse" x1="-315.1064" y1="454.4053" x2="-314.1064" y2="454.4053" gradientTransform="matrix(-2.000000e-06 45.0078 45.0078 2.000000e-06 -20107.082 14272.0215)">
			<stop  offset="0" style="stop-color:#43C3D3"/>
			<stop  offset="1" style="stop-color:#00AEB8"/>
		</linearGradient>
		<rect x="326.593" y="89.747" clip-path="url(#SVGID_52_)" fill="url(#SVGID_53_)" width="36.244" height="45.008"/>
	</g>
	<g clip-path="url(#SVGID_2_)">
		<defs>
			<path id="SVGID_54_" d="M367.781,90.938v0.626h0.815c1.084,0,2.012,0.375,2.786,1.127c0.771,0.75,1.178,1.668,1.221,2.753v34.742
				c-0.043,1.085-0.45,2.014-1.221,2.785c-0.774,0.772-1.702,1.157-2.786,1.157h-0.815v0.627h13.709v-0.627h-0.812
				c-1.087,0-2.026-0.385-2.818-1.157c-0.793-0.771-1.188-1.7-1.188-2.785V95.443c0.04-1.085,0.446-2.003,1.219-2.753
				c0.771-0.752,1.7-1.127,2.787-1.127h0.812v-0.626H367.781z"/>
		</defs>
		<clipPath id="SVGID_55_">
			<use xlink:href="#SVGID_54_"  overflow="visible"/>
		</clipPath>
		
			<linearGradient id="SVGID_56_" gradientUnits="userSpaceOnUse" x1="-315.1069" y1="454.4043" x2="-314.1069" y2="454.4043" gradientTransform="matrix(-1.900000e-06 43.8174 43.8174 1.900000e-06 -19536.207 13898.0967)">
			<stop  offset="0" style="stop-color:#43C3D3"/>
			<stop  offset="1" style="stop-color:#00AEB8"/>
		</linearGradient>
		<rect x="367.781" y="90.938" clip-path="url(#SVGID_55_)" fill="url(#SVGID_56_)" width="13.709" height="43.817"/>
	</g>
	<g clip-path="url(#SVGID_2_)">
		<defs>
			<path id="SVGID_57_" d="M397.985,127.994c-3.231-3.839-4.85-8.888-4.85-15.148c0-6.26,1.618-11.309,4.85-15.148
				c3.234-3.839,7.502-5.759,12.802-5.759c3.507,0,6.604,0.867,9.297,2.597c2.691,1.733,4.767,4.187,6.229,7.355
				c1.459,3.172,2.19,6.822,2.19,10.955c0,6.261-1.617,11.31-4.852,15.148c-3.234,3.841-7.512,5.759-12.832,5.759
				S401.219,131.835,397.985,127.994 M394.543,96.353c-4.152,4.193-6.229,9.691-6.229,16.493c0,6.803,2.076,12.301,6.229,16.493
				c4.151,4.195,9.566,6.291,16.243,6.291s12.103-2.096,16.276-6.291c4.172-4.192,6.26-9.69,6.26-16.493
				c0-6.802-2.088-12.3-6.26-16.493c-4.174-4.195-9.6-6.291-16.276-6.291S398.695,92.157,394.543,96.353"/>
		</defs>
		<clipPath id="SVGID_58_">
			<use xlink:href="#SVGID_57_"  overflow="visible"/>
		</clipPath>
		
			<linearGradient id="SVGID_59_" gradientUnits="userSpaceOnUse" x1="-315.1064" y1="454.4053" x2="-314.1069" y2="454.4053" gradientTransform="matrix(-2.000000e-06 45.5703 45.5703 2.000000e-06 -20296.5605 14449.582)">
			<stop  offset="0" style="stop-color:#43C3D3"/>
			<stop  offset="1" style="stop-color:#00AEB8"/>
		</linearGradient>
		<rect x="388.315" y="90.062" clip-path="url(#SVGID_58_)" fill="url(#SVGID_59_)" width="45.008" height="45.568"/>
	</g>
	<g clip-path="url(#SVGID_2_)">
		<defs>
			<path id="SVGID_60_" d="M442.398,89.997l0.126,1.002c0.291,2.004,0.438,4.278,0.438,6.823v32.489
				c0,1.084-0.376,1.992-1.127,2.722c-0.75,0.731-1.649,1.095-2.691,1.095h-1.19v0.627h12.896v-0.627h-1.19
				c-0.669,0-1.293-0.165-1.878-0.5c-1.251-0.709-1.898-1.793-1.94-3.255V99.199l34.116,36.431h0.563l-0.126-1.125
				c-0.292-2.17-0.438-4.465-0.438-6.886v-32.3c0.041-1.043,0.438-1.931,1.189-2.661c0.751-0.73,1.647-1.095,2.691-1.095h1.127
				v-0.626h-12.895v0.626h1.188c1.043,0,1.939,0.364,2.691,1.095c0.75,0.73,1.147,1.637,1.189,2.723v31.05l-34.114-36.434H442.398z"
				/>
		</defs>
		<clipPath id="SVGID_61_">
			<use xlink:href="#SVGID_60_"  overflow="visible"/>
		</clipPath>
		
			<linearGradient id="SVGID_62_" gradientUnits="userSpaceOnUse" x1="-315.106" y1="454.4062" x2="-314.1064" y2="454.4062" gradientTransform="matrix(-2.000000e-06 45.6338 45.6338 2.000000e-06 -20274.7793 14469.5215)">
			<stop  offset="0" style="stop-color:#43C3D3"/>
			<stop  offset="1" style="stop-color:#00AEB8"/>
		</linearGradient>
		<rect x="437.954" y="89.997" clip-path="url(#SVGID_61_)" fill="url(#SVGID_62_)" width="47.012" height="45.633"/>
	</g>
	<g clip-path="url(#SVGID_2_)">
		<defs>
			<path id="SVGID_63_" d="M495.449,93.222c-1.981,2.106-2.973,4.643-2.973,7.605s1.127,5.489,3.38,7.574l12.02,11.143
				c1.628,1.502,2.439,3.453,2.439,5.854c0,2.399-0.844,4.392-2.534,5.977c-1.689,1.587-3.85,2.379-6.478,2.379
				c-2.546,0-4.591-0.845-6.136-2.535c-1.544-1.689-2.316-3.808-2.316-6.353c0-0.46,0.021-0.918,0.063-1.378h-0.563
				c-0.626,1.878-0.938,3.653-0.938,5.32c0,1.67,0.062,2.797,0.188,3.381c1.126,1.168,2.722,2.035,4.788,2.598
				c2.065,0.564,4.018,0.844,5.853,0.844c3.546,0,6.386-1.072,8.515-3.223c2.128-2.149,3.191-4.893,3.191-8.23
				c0-3.339-1.043-5.97-3.129-7.889l-12.333-11.393c-1.668-1.543-2.503-3.38-2.503-5.508c0-2.129,0.718-3.902,2.16-5.321
				c1.438-1.418,3.223-2.128,5.351-2.128c2.127,0,3.87,0.585,5.228,1.753c1.354,1.168,2.035,2.733,2.035,4.695h0.562v-7.7h-2.441
				c-2.002-0.416-3.799-0.625-5.384-0.625C500.113,90.062,497.431,91.114,495.449,93.222"/>
		</defs>
		<clipPath id="SVGID_64_">
			<use xlink:href="#SVGID_63_"  overflow="visible"/>
		</clipPath>
		
			<linearGradient id="SVGID_65_" gradientUnits="userSpaceOnUse" x1="-315.1064" y1="454.4053" x2="-314.1069" y2="454.4053" gradientTransform="matrix(-2.000000e-06 45.5703 45.5703 2.000000e-06 -20204.7168 14449.582)">
			<stop  offset="0" style="stop-color:#43C3D3"/>
			<stop  offset="1" style="stop-color:#00AEB8"/>
		</linearGradient>
		<rect x="491.414" y="90.062" clip-path="url(#SVGID_64_)" fill="url(#SVGID_65_)" width="22.533" height="45.568"/>
	</g>
	<g clip-path="url(#SVGID_2_)">
		<defs>
			<path id="SVGID_66_" d="M52.084,113.725c-2.862,1.904-6.088,4.673-9.311,7.861c-1.68,1.663-3.362,3.438-5.002,5.266
				c-2.683,2.981-2.271,7.914,1.092,10.468c2.322,1.763,4.76,3.379,7.303,4.836c3.663,2.101,8.052,1.249,9.44-1.483
				c0.838-1.649,1.642-3.313,2.406-4.997c1.917-4.121,5.675-12.582,5.612-18.323c0.005-1.763-0.331-3.16-0.915-4.126
				c-0.596-0.958-1.381-1.672-3.069-2.209c-0.216-0.072-0.477-0.112-0.821-0.112c-0.028-0.001-0.057-0.001-0.087-0.001
				C57.355,110.902,54.878,111.836,52.084,113.725"/>
		</defs>
		<clipPath id="SVGID_67_">
			<use xlink:href="#SVGID_66_"  overflow="visible"/>
		</clipPath>
		
			<linearGradient id="SVGID_68_" gradientUnits="userSpaceOnUse" x1="-315.1069" y1="454.4072" x2="-314.1069" y2="454.4072" gradientTransform="matrix(-35.1776 109.3564 109.3564 35.1776 -60693.3711 18495.0742)">
			<stop  offset="0" style="stop-color:#43C3D3"/>
			<stop  offset="1" style="stop-color:#00AEB8"/>
		</linearGradient>
		<polygon clip-path="url(#SVGID_67_)" fill="url(#SVGID_68_)" points="73.41,114.03 61.005,152.594 25.365,141.129 37.77,102.565 
					"/>
	</g>
	<g clip-path="url(#SVGID_2_)">
		<defs>
			<path id="SVGID_69_" d="M29.94,92.056c-2.565,1.844-5.473,4.543-8.378,7.656c-0.491,0.525-1.623,2.075-2.725,3.66
				c-1.438,2.069-1.344,7.034,0.584,10.791c1.358,2.646,2.884,5.188,4.567,7.617c2.403,3.473,6.615,3.197,8.791-0.424
				c1.737-2.894,3.288-5.76,4.458-8.566c1.432-3.367,3.566-9.934,3.537-15.161c0.005-2.172-0.359-4.056-1.051-5.379
				c-0.715-1.326-2.062-2.763-3.942-2.874c-0.03-0.002-0.061-0.002-0.093-0.002C34.61,89.373,32.418,90.237,29.94,92.056"/>
		</defs>
		<clipPath id="SVGID_70_">
			<use xlink:href="#SVGID_69_"  overflow="visible"/>
		</clipPath>
		
			<linearGradient id="SVGID_71_" gradientUnits="userSpaceOnUse" x1="-315.1069" y1="454.4131" x2="-314.1069" y2="454.4131" gradientTransform="matrix(-35.1776 109.3561 109.3561 35.1776 -60718.1172 18487.0352)">
			<stop  offset="0" style="stop-color:#43C3D3"/>
			<stop  offset="1" style="stop-color:#00AEB8"/>
		</linearGradient>
		<polygon clip-path="url(#SVGID_70_)" fill="url(#SVGID_71_)" points="51.263,92.738 38.608,132.076 6.939,121.889 19.594,82.551 
					"/>
	</g>
	<g clip-path="url(#SVGID_2_)">
		<defs>
			<path id="SVGID_72_" d="M99.13,28.178c-16.884,0.029-33.17,6.532-42.994,21.817c-3.089,4.763-4.17,8.148-4.128,9.855
				c0.079,1.391,0.311,1.625,1.097,2.196c0.818,0.528,2.565,0.959,4.886,0.943c8.64,0.08,23.771-5.444,30.79-9.557
				c0,0,1.07-0.62,2.388-1.383c1.318-0.761,2.287-0.148,2.164,1.374l-0.225,2.753c-0.091,1.066-0.138,2.084-0.138,3.052
				c0.05,8.254,2.857,13.3,7.305,16.711c4.466,3.396,10.98,5.033,18.313,5.024c6.868,0.044,14.369-1.417,21.333-3.847
				c3.987-1.392,6.669-6.302,5.641-10.4c-2.571-10.264-7.481-19.6-14.135-27.41c-2.738-3.215-5.37-5.555-5.484-5.589
				c-0.068-0.02-0.136-0.041-0.203-0.071c-8.214-3.511-17.446-5.467-26.566-5.468C99.159,28.178,99.145,28.178,99.13,28.178"/>
		</defs>
		<clipPath id="SVGID_73_">
			<use xlink:href="#SVGID_72_"  overflow="visible"/>
		</clipPath>
		
			<linearGradient id="SVGID_74_" gradientUnits="userSpaceOnUse" x1="-315.1069" y1="454.3818" x2="-314.1069" y2="454.3818" gradientTransform="matrix(-35.1782 109.3581 109.3581 35.1782 -60667.7227 18503.9961)">
			<stop  offset="0" style="stop-color:#43C3D3"/>
			<stop  offset="1" style="stop-color:#00AEB8"/>
		</linearGradient>
		<polygon clip-path="url(#SVGID_73_)" fill="url(#SVGID_74_)" points="161.99,33.132 137.717,108.592 36.566,76.053 60.839,0.594 
					"/>
	</g>
	<g clip-path="url(#SVGID_2_)">
		<defs>
			<path id="SVGID_75_" d="M12.57,74.883c-0.01,0.01-0.023,0.019-0.036,0.03c-0.021,0.015-0.279,1.879-0.427,4.176
				c-0.088,1.379-0.136,2.767-0.136,4.169c0,2.971,0.194,5.896,0.568,8.762c0.544,4.188,2.154,6.125,3.018,4.386
				c0.521-1.049,1.026-2.104,1.51-3.171c1.648-3.539,4.843-10.79,4.784-15.569c0-1.47-0.181-2.698-0.641-3.433
				c-0.663-1.055-1.807-1.597-3.08-1.699c-0.044-0.001-0.088-0.002-0.133-0.002C16.561,72.532,14.912,73.297,12.57,74.883"/>
		</defs>
		<clipPath id="SVGID_76_">
			<use xlink:href="#SVGID_75_"  overflow="visible"/>
		</clipPath>
		
			<linearGradient id="SVGID_77_" gradientUnits="userSpaceOnUse" x1="-315.1069" y1="454.4238" x2="-314.1069" y2="454.4238" gradientTransform="matrix(-35.1783 109.3584 109.3584 35.1783 -60738.0586 18481.4141)">
			<stop  offset="0" style="stop-color:#43C3D3"/>
			<stop  offset="1" style="stop-color:#00AEB8"/>
		</linearGradient>
		<polygon clip-path="url(#SVGID_76_)" fill="url(#SVGID_77_)" points="29.376,74.934 20.978,101.043 4.504,95.743 12.903,69.635 		
			"/>
	</g>
	<g clip-path="url(#SVGID_2_)">
		<defs>
			<path id="SVGID_78_" d="M15.958,60.348c-1.426,3.977-1.244,6.93-0.04,6.666c0.725-0.162,1.461-0.253,2.212-0.263
				c0.749-0.005,1.538,0.089,2.291,0.332c2.504,0.743,4.514,2.303,5.668,4.28c1.169,1.965,1.542,4.157,1.549,6.303
				c-0.015,1.778-0.274,3.594-0.674,5.372c-0.655,2.923-1.289,4.998-0.974,4.756c0.193-0.149,0.386-0.296,0.574-0.434
				c3.051-2.157,5.979-3.718,9.217-3.768c0.801-0.003,1.635,0.114,2.432,0.379c3.085,0.995,5.385,3.122,6.645,5.622
				c1.287,2.497,1.697,5.273,1.699,8.036c-0.011,2.806-0.438,5.652-1.048,8.298c-0.95,4.114-1.041,6.26,0.505,5.06
				c0.967-0.749,1.924-1.447,2.87-2.081c3.345-2.191,6.549-3.742,9.935-3.783c0.835,0,1.695,0.107,2.53,0.367
				c2.818,0.839,5.04,2.576,6.328,4.77c1.299,2.188,1.728,4.652,1.732,7.093c-0.061,7.823-4.255,16.478-6.129,20.714
				c-0.742,1.634-1.525,3.238-2.335,4.828c-1.345,2.636,0.736,5.857,4.871,6.729c4.507,0.952,9.185,1.455,13.978,1.455
				c4.254,0,8.415-0.393,12.45-1.144c4.153-0.772,4.079-2.609,0.152-4.165c-6.012-2.377-11.718-5.845-17.063-10.921
				c-1.162-1.097-1.21-2.929-0.114-4.084c1.098-1.161,2.93-1.211,4.09-0.114c6.943,6.577,14.495,10.166,22.858,12.14
				c4.11,0.973,10.624-0.127,14.18-2.407c0.929-0.595,1.839-1.209,2.734-1.847c3.441-2.45,2.791-5.505-1.045-6.704
				c-2.311-0.723-4.611-1.529-6.864-2.413c-9.79-3.896-18.59-8.91-23-15.085c-0.914-1.305-0.597-3.109,0.713-4.021
				c1.308-0.917,3.11-0.604,4.028,0.708c2.957,4.366,11.144,9.45,20.368,13.015c3.013,1.189,6.142,2.231,9.242,3.102
				c4.068,1.141,9.717-0.683,12.129-4.008c2.41-3.323,0.667-6.934-3.344-8.254c-11.503-3.794-22.577-10.465-28.545-17.559
				c-1.014-1.233-0.835-3.058,0.401-4.067c1.233-1.018,3.051-0.84,4.068,0.396c4.829,6.051,15.86,12.51,26.784,16.022
				c4.02,1.293,8.88-1.191,10.201-5.205c2.202-6.669,3.398-13.798,3.398-21.205c0-0.488-0.006-0.974-0.021-1.46
				c-0.02-0.805-3.18-0.042-7.195,1.263c-7.108,2.312-14.647,3.644-21.811,3.686c-8.144-0.01-15.884-1.744-21.802-6.193
				c-3.901-2.912-6.842-7.051-8.384-12.278c-1.197-4.051-4.274-6.045-8.222-4.539c-7.26,2.77-15.556,4.988-22.189,5.037
				c-2.911-0.016-5.6-0.406-7.913-1.797c-2.345-1.347-3.935-4.133-3.858-7.127c0.042-3.681,1.706-7.732,5.049-12.978
				c11.054-17.236,29.554-24.508,47.861-24.48c2.163,0,4.331,0.107,6.488,0.309c3.573,0.335,3.436-0.791-0.48-2.37
				c-7.829-3.158-16.384-4.896-25.344-4.896C50.379,15.435,25.351,34.167,15.958,60.348"/>
		</defs>
		<clipPath id="SVGID_79_">
			<use xlink:href="#SVGID_78_"  overflow="visible"/>
		</clipPath>
		
			<linearGradient id="SVGID_80_" gradientUnits="userSpaceOnUse" x1="-315.1069" y1="454.3447" x2="-314.1069" y2="454.3447" gradientTransform="matrix(32.2677 64.2948 64.2948 -32.2677 -18976.6348 34976.7812)">
			<stop  offset="0" style="stop-color:#3F7ABB"/>
			<stop  offset="1" style="stop-color:#105186"/>
		</linearGradient>
		<polygon clip-path="url(#SVGID_79_)" fill="url(#SVGID_80_)" points="120.839,-37.917 201.994,123.787 41.308,204.431 
			-39.847,42.726 		"/>
	</g>
</g>
</svg>
